<?xml version="1.0" encoding="utf-8"?>
<!-- Generator: Adobe Illustrator 24.0.1, SVG Export Plug-In . SVG Version: 6.00 Build 0)  -->
<svg version="1.1" id="Ebene_1" xmlns="http://www.w3.org/2000/svg" xmlns:xlink="http://www.w3.org/1999/xlink" x="0px" y="0px"
	 viewBox="0 0 375.3 197" enable-background="new 0 0 375.3 197" xml:space="preserve">
<g id="Gruppe_1" transform="translate(-17 -2207)">
	<path id="Pfad_22" fill="#6CC8EA" d="M358.3,2271.9h-21.7c-2.5-13-13.4-22.4-26-22.4h-212c-14.6,0-26.5,12.5-26.5,28H51
		c-3,0.1-5.4,2.6-5.3,5.6v44.8c-0.1,3,2.3,5.5,5.3,5.6h22.8c4.7,16.6,19.1,28,35.5,28H141c24.2-0.1,46.7-13.5,59.2-35.5
		c1.4-2.4,4.4-3.3,6.9-1.9c0.1,0.1,0.2,0.1,0.3,0.2c0.7,0.4,1.2,1,1.7,1.7c12.5,22,34.9,35.4,59.2,35.5H300
		c18.4,0,34-14.3,36.7-33.6h21.6c3-0.1,5.4-2.6,5.3-5.6v-44.8C363.7,2274.5,361.3,2272,358.3,2271.9z M72.2,2322.3H56.3v-16.8h15.9
		L72.2,2322.3z M72.2,2294.3H56.3v-5.6h15.9L72.2,2294.3z M326.5,2322.3c0,15.5-11.9,28-26.5,28h-31.8
		c-20.5-0.1-39.5-11.5-50.1-30.1c-4-7.4-13.3-10.2-20.8-6.2c-0.3,0.2-0.6,0.4-0.9,0.5c-2.2,1.4-4,3.4-5.3,5.6
		c-10.6,18.6-29.5,30-50.1,30.1h-31.8c-14.6,0-26.5-12.5-26.5-28v-44.8c0-9.3,7.1-16.8,15.9-16.8h212c8.8,0,15.9,7.5,15.9,16.8
		L326.5,2322.3z M353,2316.7h-15.9v-16.8H353V2316.7z M353,2288.7h-15.9v-5.6H353V2288.7z"/>
	<path id="Pfad_23" fill="#6CC8EA" d="M210.2,2271.9H199c-3.1,0-5.6,2.5-5.6,5.6s2.5,5.6,5.6,5.6h11.2c3.1,0,5.6-2.5,5.6-5.6
		S213.3,2271.9,210.2,2271.9z"/>
</g>
</svg>
