<?xml version="1.0" encoding="utf-8"?>
<!-- Generator: Adobe Illustrator 24.0.1, SVG Export Plug-In . SVG Version: 6.00 Build 0)  -->
<svg version="1.1" id="Ebene_1" xmlns="http://www.w3.org/2000/svg" xmlns:xlink="http://www.w3.org/1999/xlink" x="0px" y="0px"
	 viewBox="0 0 375.3 197" enable-background="new 0 0 375.3 197" xml:space="preserve">
<g id="Gruppe_2" transform="translate(0 0)">
	<g id="gesichtsmaske" transform="translate(0 0)">
		<path id="Pfad_25" fill="#6CC8EA" d="M314.5,57.4h-9.1V42.1c0-2.3-1.5-4.3-3.7-4.8C299.2,36.6,238,21,187.6,21
			S76.1,36.6,73.5,37.3c-2.2,0.6-3.7,2.6-3.7,4.8v15.3h-9.1c-22.7,0-41.1,18.4-41.1,41.1s18.4,41.1,41.1,41.1h9.1v15.3
			c0,2.3,1.5,4.3,3.7,4.8c2.6,0.7,63.7,16.2,114.1,16.2s111.5-15.6,114.1-16.2c2.2-0.6,3.7-2.6,3.7-4.8v-15.3h9.1
			c22.7,0,41.1-18.4,41.1-41.1S337.2,57.4,314.5,57.4L314.5,57.4z M60.8,129.7c-17.2,0-31.2-14-31.2-31.2s14-31.2,31.2-31.2h9.1
			v62.4H60.8z M79.7,134.7V46c1.8-0.4,4.2-1,7.1-1.6v108.4c-2.9-0.7-5.3-1.2-7.1-1.6V134.7z M96.7,154.8V42.2
			c22.5-4.7,59.3-11.2,90.9-11.2s68.4,6.5,90.9,11.2v112.7c-22.5,4.7-59.3,11.2-90.9,11.2S119.2,159.5,96.7,154.8L96.7,154.8z
			 M295.5,151c-1.8,0.4-4.2,1-7.1,1.6V44.3c2.9,0.7,5.3,1.2,7.1,1.6V151L295.5,151z M314.5,129.7h-9.1V67.3h9.1
			c17.2,0,31.2,14,31.2,31.2C345.7,115.7,331.7,129.7,314.5,129.7L314.5,129.7z"/>
	</g>
	<rect id="Rechteck_25" x="87.6" y="42" fill="#6CC8EA" width="196" height="112"/>
</g>
</svg>
