<?xml version="1.0" encoding="utf-8"?>
<!-- Generator: Adobe Illustrator 24.0.1, SVG Export Plug-In . SVG Version: 6.00 Build 0)  -->
<svg version="1.1" id="Ebene_1" xmlns="http://www.w3.org/2000/svg" xmlns:xlink="http://www.w3.org/1999/xlink" x="0px" y="0px"
	 viewBox="0 0 375.3 197" enable-background="new 0 0 375.3 197" xml:space="preserve">
<g id="gesichtsmaske" transform="translate(-4.75 -36.679)">
	<path id="Pfad_24" fill="#6CC8EA" d="M227.8,116h-16.3V99.7c0-2.7-2.2-5-5-5l0,0h-28.4c-2.7,0-5,2.2-5,5V116h-16.3
		c-2.7,0-5,2.2-5,5l0,0v28.4c0,2.7,2.2,5,5,5h16.3v16.3c0,2.7,2.2,5,5,5c0,0,0,0,0,0h28.4c2.7,0,5-2.2,5-5v-16.3h16.3
		c2.7,0,5-2.2,5-5c0,0,0,0,0,0V121C232.8,118.3,230.6,116,227.8,116z M222.9,144.4h-16.3c-2.7,0-5,2.2-5,5v16.3h-18.4v-16.3
		c0-2.7-2.2-5-5-5h-16.3V126h16.3c2.7,0,5-2.2,5-5v-16.3h18.4V121c0,2.7,2.2,5,5,5h16.3L222.9,144.4z"/>
	<path id="Pfad_25" fill="#6CC8EA" d="M319.3,94.1h-9.1V78.8c0-2.3-1.5-4.3-3.7-4.8c-2.6-0.7-63.7-16.2-114.1-16.2
		S80.9,73.3,78.3,73.9c-2.2,0.6-3.7,2.6-3.7,4.8v15.3h-9.1c-22.7,0-41.1,18.4-41.1,41.1s18.4,41.1,41.1,41.1h9.1v15.3
		c0,2.3,1.5,4.3,3.7,4.8c2.6,0.7,63.7,16.2,114.1,16.2s111.5-15.6,114.1-16.2c2.2-0.6,3.7-2.6,3.7-4.8v-15.3h9.1
		c22.7,0,41.1-18.4,41.1-41.1S342,94.1,319.3,94.1L319.3,94.1z M65.5,166.4c-17.2,0-31.2-14-31.2-31.2s14-31.2,31.2-31.2h9.1v62.4
		H65.5z M84.5,171.3V82.6c1.8-0.4,4.2-1,7.1-1.6v108.4c-2.9-0.7-5.3-1.2-7.1-1.6V171.3z M101.5,191.5V78.8
		c22.5-4.7,59.3-11.2,90.9-11.2s68.4,6.5,90.9,11.2v112.7c-22.5,4.7-59.3,11.2-90.9,11.2S124,196.2,101.5,191.5L101.5,191.5z
		 M300.3,187.7c-1.8,0.4-4.2,1-7.1,1.6V81c2.9,0.7,5.3,1.2,7.1,1.6V187.7L300.3,187.7z M319.3,166.4h-9.1V104h9.1
		c17.2,0,31.2,14,31.2,31.2C350.4,152.4,336.5,166.4,319.3,166.4L319.3,166.4z"/>
</g>
</svg>
