<?xml version="1.0" encoding="utf-8"?>
<!-- Generator: Adobe Illustrator 24.0.1, SVG Export Plug-In . SVG Version: 6.00 Build 0)  -->
<svg version="1.1" id="Ebene_1" xmlns="http://www.w3.org/2000/svg" xmlns:xlink="http://www.w3.org/1999/xlink" x="0px" y="0px"
	 viewBox="0 0 216 197" enable-background="new 0 0 216 197" xml:space="preserve">
<g id="jacke" transform="translate(0 0)">
	<path id="Pfad_15" fill="#6CC8EA" d="M199.1,145.9L199.1,145.9c-1.9,0-3.5,1.3-3.5,2.8l0,36.7c0,1.7-1.7,3.1-3.8,3.1h-80.4v-76.4
		h84.2v22.7c0,1.6,1.6,2.8,3.5,2.8s3.5-1.3,3.5-2.8V84.3c0-17.4-5.4-23.2-10.1-28.3c-4-4.3-7.5-8-7.5-19.4v-25
		c0-4.8-4.8-8.7-10.7-8.8l-13.8,0c-1.1,0-2.2,0-3.1,0c-4.5-0.1-7.8-0.1-10.7,1.5c-3.1,1.7-4.7,4.8-6.3,9.3
		c-4.2,11.6-17.5,19.6-32.3,19.6s-28.1-8.1-32.3-19.6C74,9.1,72.4,6,69.3,4.3c-2.9-1.6-6.2-1.5-10.7-1.5c-1,0-2,0-3.1,0l-13.8,0
		C35.8,2.9,31,6.8,31,11.6v25c0,11.4-3.5,15.1-7.5,19.4c-4.7,5.1-10.1,10.9-10.1,28.2v101.2c0,4.8,4.8,8.8,10.7,8.8h167.7
		c5.9,0,10.7-3.9,10.7-8.8l0-36.7C202.6,147.2,201,145.9,199.1,145.9z M132.5,32.2c6.6-3.9,11.7-9.9,14.5-17
		c1.4-3.7,2.5-5.6,3.6-6.3c1.1-0.6,3.3-0.6,6.7-0.5c1,0,2.1,0,3.2,0l13.8,0c2.1,0,3.8,1.4,3.8,3.1v25c0,13.3,4.5,18.2,8.9,22.8
		c4.2,4.5,8.2,8.8,8.7,22h-32c-1.9,0-3.5,1.3-3.5,2.8s1.5,2.8,3.5,2.8h32v19.4h-84.2V87.1h34.7l0,0c1.9,0,3.5-1.3,3.5-2.8
		s-1.5-2.8-3.5-2.8h-34.7V38.8C118.9,38.3,126.1,36,132.5,32.2z M20.3,87.1l84.2,0v19.4H20.3V87.1z M29,59.5
		c4.4-4.7,8.9-9.5,8.9-22.8v-25c0-1.7,1.7-3.1,3.8-3.1l13.8,0c1.2,0,2.2,0,3.2,0c3.4-0.1,5.6-0.1,6.7,0.5c1.1,0.6,2.2,2.6,3.6,6.3
		c2.8,7.1,7.9,13.1,14.5,17c6.4,3.9,13.6,6.1,21,6.6v42.7l-84.1,0C20.9,68.2,24.8,64,29,59.5L29,59.5z M20.3,185.5v-73.3h84.2v76.4
		H24.1C22,188.6,20.3,187.2,20.3,185.5z"/>
	<path id="Pfad_16" fill="#6CC8EA" d="M73.7,125.1H32.9c-2.7,0-4.9,2.2-4.9,4.9v7.9c0,1.6,0.8,3.1,2.1,4v25.5c0,2.6,2.1,4.8,4.8,4.8
		h37c2.6,0,4.8-2.1,4.8-4.8v-25.5c1.3-0.9,2.1-2.4,2.1-4V130C78.6,127.3,76.4,125.1,73.7,125.1z M33.6,130.7H73v6.5H33.6L33.6,130.7
		z M35.7,166.5v-23.7h35.2v23.7L35.7,166.5z"/>
	<path id="Pfad_17" fill="#6CC8EA" d="M52.8,72h28.5c2.7,0,4.9-2.2,4.9-4.9v-7.9c0-2.7-2.2-4.9-4.9-4.9H52.8c-2.7,0-4.9,2.2-4.9,4.9
		v7.9C47.9,69.8,50.1,72,52.8,72z M53.5,59.9h27v6.5h-27V59.9z"/>
	<path id="Pfad_18" fill="#6CC8EA" d="M132.5,71.8H161c2.7,0,4.9-2.2,4.9-4.9V59c0-2.7-2.2-4.9-4.9-4.9h-28.5
		c-2.7,0-4.9,2.2-4.9,4.9v7.9C127.6,69.6,129.8,71.8,132.5,71.8z M133.2,59.7h27.1v6.5h-27.1V59.7z"/>
	<path id="Pfad_19" fill="#6CC8EA" d="M146.6,172.1h36.2c2.6,0,4.8-2.1,4.8-4.8v-25.4c1.3-0.9,2.1-2.4,2.1-4V130
		c0-2.7-2.2-4.9-4.9-4.9h-40c-2.7,0-4.9,2.2-4.9,4.9v7.9c0,1.6,0.8,3.1,2.1,4v25.5C141.8,170,143.9,172.1,146.6,172.1z M147.4,166.5
		v-23.7h34.4v23.7L147.4,166.5z M145.3,130.7H184v6.5h-38.6L145.3,130.7z"/>
</g>
</svg>
