<?xml version="1.0" encoding="utf-8"?>
<!-- Generator: Adobe Illustrator 24.0.1, SVG Export Plug-In . SVG Version: 6.00 Build 0)  -->
<svg version="1.1" id="Ebene_1" xmlns="http://www.w3.org/2000/svg" xmlns:xlink="http://www.w3.org/1999/xlink" x="0px" y="0px"
	 viewBox="0 0 265.3 151.9" style="enable-background:new 0 0 265.3 151.9;" xml:space="preserve">
<style type="text/css">
	.st0{fill:#5DFF02;}
	.st1{enable-background:new    ;}
	.st2{fill:#52DBFB;}
</style>
<g>
	<g>
		<path class="st0" d="M55.8,79.5H65v13.3c0,6.7-3.4,10.6-9.8,10.6c-6.5,0-9.8-3.8-9.8-10.6V71c0-6.7,3.4-10.6,9.8-10.6
			c6.5,0,9.8,3.8,9.8,10.6v4.1h-6.2v-4.5c0-3-1.3-4.1-3.4-4.1c-2.1,0-3.4,1.1-3.4,4.1v22.7c0,3,1.3,4.1,3.4,4.1
			c2.1,0,3.4-1.1,3.4-4.1v-7.7h-3V79.5z"/>
		<path class="st0" d="M75.9,78.6H85v6h-9.1v12.3h11.4v6h-18v-42h18v6H75.9V78.6z"/>
		<path class="st0" d="M105.2,102.9c-0.4-1.1-0.6-1.7-0.6-5.2v-6.6c0-3.9-1.3-5.3-4.3-5.3H98v17.1h-6.6v-42h10
			c6.8,0,9.8,3.2,9.8,9.7v3.3c0,4.3-1.4,7.1-4.3,8.5v0.1c3.3,1.4,4.4,4.5,4.4,8.9v6.5c0,2,0.1,3.5,0.7,5.1L105.2,102.9L105.2,102.9z
			 M98,66.9v12.9h2.6c2.5,0,4-1.1,4-4.4v-4.1c0-3-1-4.3-3.4-4.3L98,66.9L98,66.9z"/>
		<path class="st0" d="M129.4,90.7h0.1l4.4-29.8h9.2v42h-6.2V72.8h-0.1l-4.4,30.1h-6.2l-4.8-29.7h-0.1v29.7h-5.8v-42h9.2L129.4,90.7
			z"/>
		<path class="st0" d="M169.3,102.9h-6.7l-1.1-7.6h-8.1l-1.1,7.6h-6.1l6.7-42h9.7L169.3,102.9z M154.2,89.6h6.4l-3.1-21.2h-0.1
			L154.2,89.6z"/>
		<path class="st0" d="M178.4,72.5h-0.1v30.4h-5.9v-42h8.3l6.7,25.1h0.1V60.9h5.9v42h-6.8L178.4,72.5z"/>
		<path class="st0" d="M204.2,89l-8.3-28.1h6.9l5,19.1h0.1l5-19.1h6.3L210.8,89v13.9h-6.6V89z"/>
	</g>
	<g class="st1">
		<path class="st2" d="M49.1,109c1.7,0,3.2,0.9,3.8,2.4h-1.6c-0.4-0.9-1.2-1.3-2.2-1.3c-1.6,0-2.8,1.1-2.8,3s1.2,3,2.8,3
			c1,0,1.7-0.4,2.2-1.3h1.6c-0.6,1.6-2.1,2.4-3.8,2.4c-2.3,0-4.2-1.7-4.2-4.2C44.9,110.7,46.8,109,49.1,109z"/>
		<path class="st2" d="M56.8,109.1v7.1h2.8v1.1h-4.1v-8.1L56.8,109.1L56.8,109.1z"/>
		<path class="st2" d="M66.2,110.2H63v2.4h2.8v1.1H63v2.5h3.2v1.1h-4.5v-8.1h4.5V110.2z"/>
		<path class="st2" d="M73.8,115.6h-3.4l-0.6,1.7h-1.4l2.9-8.1h1.5l2.9,8.1h-1.4L73.8,115.6z M72.1,110.7l-1.3,3.8h2.7L72.1,110.7z"
			/>
		<path class="st2" d="M84.8,109.1v8.1h-1.3l-4-6.1v6.1h-1.3v-8.1h1.3l4,6.1v-6.1H84.8z"/>
		<path class="st2" d="M94.5,113.9H93v3.3h-1.3v-8.1h2.8c1.9,0,2.9,1.1,2.9,2.4C97.4,112.7,96.7,113.9,94.5,113.9z M94.5,112.8
			c1,0,1.5-0.5,1.5-1.3s-0.5-1.3-1.5-1.3H93v2.7L94.5,112.8L94.5,112.8z"/>
		<path class="st2" d="M102.6,109.1c1.9,0,2.9,1.1,2.9,2.4c0,1-0.5,2-1.9,2.3l2,3.4H104l-1.9-3.3h-1v3.3h-1.3v-8.1
			C99.8,109.1,102.6,109.1,102.6,109.1z M102.6,110.2h-1.5v2.7h1.5c1,0,1.5-0.6,1.5-1.4C104.1,110.7,103.6,110.2,102.6,110.2z"/>
		<path class="st2" d="M111.9,117.3c-2.3,0-4.2-1.7-4.2-4.2c0-2.4,1.9-4.2,4.2-4.2c2.3,0,4.2,1.7,4.2,4.2
			C116.1,115.6,114.2,117.3,111.9,117.3z M111.9,116.1c1.6,0,2.8-1.2,2.8-3s-1.2-3-2.8-3c-1.6,0-2.8,1.1-2.8,3
			S110.3,116.1,111.9,116.1z"/>
		<path class="st2" d="M125.4,113.2c0,2.5-1.7,4-4.3,4h-2.7v-8.1h2.7C123.7,109.1,125.4,110.7,125.4,113.2z M121.1,116.1
			c1.9,0,2.9-1.1,2.9-2.9c0-1.9-1-3-2.9-3h-1.3v6L121.1,116.1L121.1,116.1z"/>
		<path class="st2" d="M127.8,109.1h1.3v5.2c0,1.3,0.7,1.9,1.8,1.9s1.8-0.6,1.8-1.9v-5.2h1.3v5.2c0,2.1-1.5,3.1-3.2,3.1
			s-3.2-1-3.2-3.1v-5.2H127.8z"/>
		<path class="st2" d="M140.6,109c1.7,0,3.2,0.9,3.8,2.4h-1.6c-0.4-0.9-1.2-1.3-2.2-1.3c-1.6,0-2.8,1.1-2.8,3s1.2,3,2.8,3
			c1,0,1.7-0.4,2.2-1.3h1.6c-0.6,1.6-2.1,2.4-3.8,2.4c-2.3,0-4.2-1.7-4.2-4.2C136.5,110.7,138.3,109,140.6,109z"/>
		<path class="st2" d="M146.6,109.1h5.7v1.1h-2.2v7h-1.3v-7h-2.2V109.1z"/>
		<path class="st2" d="M157.4,117.3c-1.6,0-2.9-0.9-2.9-2.3h1.4c0.1,0.7,0.5,1.2,1.5,1.2c0.9,0,1.5-0.5,1.5-1.2c0-2-4.3-0.7-4.3-3.7
			c0-1.4,1.1-2.3,2.8-2.3c1.6,0,2.7,0.8,2.8,2.2h-1.5c0-0.5-0.5-1.1-1.4-1.1c-0.8,0-1.4,0.4-1.4,1.1c0,1.8,4.3,0.7,4.3,3.7
			C160.2,116.1,159.2,117.3,157.4,117.3z"/>
		<path class="st2" d="M168.2,109.1v7.1h2.8v1.1h-4.1v-8.1L168.2,109.1L168.2,109.1z"/>
		<path class="st2" d="M173.2,109.1h1.3v8.1h-1.3V109.1z"/>
		<path class="st2" d="M177.3,109.1h1.4l2.9,6.4l2.8-6.4h1.4v8.1h-1.3v-5.6l-2.5,5.6h-0.9l-2.5-5.6v5.6h-1.3L177.3,109.1
			L177.3,109.1z"/>
		<path class="st2" d="M188.7,109.1h1.3v8.1h-1.3V109.1z"/>
		<path class="st2" d="M192.4,109.1h5.7v1.1h-2.2v7h-1.3v-7h-2.2V109.1z"/>
		<path class="st2" d="M205,110.2h-3.2v2.4h2.8v1.1h-2.8v2.5h3.2v1.1h-4.5v-8.1h4.5V110.2z"/>
		<path class="st2" d="M214.7,113.2c0,2.5-1.7,4-4.3,4h-2.7v-8.1h2.7C213,109.1,214.7,110.7,214.7,113.2z M210.3,116.1
			c1.9,0,2.9-1.1,2.9-2.9c0-1.9-1-3-2.9-3H209v6L210.3,116.1L210.3,116.1z"/>
	</g>
	<g class="st1">
		<path class="st2" d="M53.4,34.6c3.8,0,6.7,2.2,7.7,5.7h-4.3c-0.7-1.4-1.9-2.1-3.4-2.1c-2.4,0-4.1,1.8-4.1,4.6s1.7,4.6,4.1,4.6
			c1.5,0,2.7-0.7,3.4-2.1H61c-0.9,3.5-3.8,5.6-7.7,5.6c-4.8,0-8.1-3.4-8.1-8.2S48.6,34.6,53.4,34.6z"/>
		<path class="st2" d="M82.4,34.8v13.1h5.1v3h-9.1V34.8H82.4z"/>
		<path class="st2" d="M69.9,45.1h-2.4v5.8h-3.9V34.8H70c4,0,5.9,2.2,5.9,5.2C75.8,42.6,74,45.1,69.9,45.1z M69.6,42
			c1.6,0,2.2-0.8,2.2-2s-0.7-2-2.2-2h-2.1v4H69.6z"/>
	</g>
</g>
</svg>
